# xmcd
#
# Track frame offsets:
#	150
#	13850
#	26657
#	46575
#	59907
#	72507
#	88382
#	101822
#	112305
#	127105
#	144927
#	153920
#	175085
#	185055
#	200785
#	218565
#	233215
#	247030
#
# Disc length: 3474 seconds
#
# Revision: 0
# Processed by: cddbd v1.5.1PL0 Copyright (c) Steve Scherf et al.
# Submitted via: audiograbber 1.83.01
#
DISCID=180d9012
DTITLE=Jonny Hill - Meine Lieder CD2
DYEAR=1900
DGENRE=
TTITLE0=Carolyn
TTITLE1=Clementine
TTITLE2=Dein erster Brief
TTITLE3=Der Schuß ins Glück
TTITLE4=Fünfhundert Meilen von zu Haus
TTITLE5=Ich möcht so gern Dave Dudley hör´n
TTITLE6=Ich wollte dir noch soviel sagen
TTITLE7=König der Landstrasse
TTITLE8=London
TTITLE9=Mal bist du traurig, mal bist du froh
TTITLE10=Ein Ring aus Feuer
TTITLE11=Papillon
TTITLE12=Susanna
TTITLE13=Pack doch deinen Koffer wieder aus
TTITLE14=Träume, ....die hat jeder
TTITLE15=Wie heißt deine Mama
TTITLE16=Ich lösche das Licht aus
TTITLE17=Jetzt sage ich euch GUTE NACHT
EXTD=
EXTT0=
EXTT1=
EXTT2=
EXTT3=
EXTT4=
EXTT5=
EXTT6=
EXTT7=
EXTT8=
EXTT9=
EXTT10=
EXTT11=
EXTT12=
EXTT13=
EXTT14=
EXTT15=
EXTT16=
EXTT17=
PLAYORDER=
